<svg id="Layer_1" data-name="Layer 1" xmlns="http://www.w3.org/2000/svg" viewBox="0 0 1493.13 500.79"><defs><style>.cls-1{fill:none;}.cls-2{fill:#f42b21;}.cls-3{fill:#e02420;}.cls-4{fill:#090a14;}.cls-5{fill:#0b0a14;}.cls-6{fill:#ef2e21;}.cls-7{fill:#115c68;}.cls-8{fill:#10111a;}.cls-9{fill:#7a0f11;}</style></defs><path class="cls-1" d="M120.08,114c2.13-1.19,4.76-2.42,3.76-5.57s-3.89-3-6.53-2.66a16.5,16.5,0,0,0-4.66,1.21c-6.64,3-13.43,5.83-19.77,9.41-25.72,14.47-37.42,37.48-39.79,66.3a60.18,60.18,0,0,0,.88,6.46c1.29,5.32,5.45,7.57,10.08,4.81a16.6,16.6,0,0,0,6.44-7.17c2.46-5.65,3.87-11.75,5.91-17.6C84.58,145.8,97.9,126.42,120.08,114Z"/><path class="cls-1" d="M186.22,78.74c-.63-2-1.57-3.87-2.3-5.81,0-2.08-.1-4.16-.1-6.24,0,2.08.06,4.16.1,6.24C184.65,74.87,185.59,76.78,186.22,78.74Z"/><path class="cls-1" d="M183.76,84.84l-1.19,0c-.48.46.07,1.5,0,2.18.09-.68-.46-1.72,0-2.18l1.19,0q.08-6,.16-11.91Q183.83,78.89,183.76,84.84Z"/><path class="cls-1" d="M153.35,487.91c4.08.2,8.19.07,12.28-.05,4.26-.13,8.51-.39,13.87-.65-1.47-1-1.9-1.49-2.4-1.58-3.16-.55-6.33-1.14-9.52-1.48-4.69-.49-9.39-.84-14.1-1.12-2-.12-4,.66-3.65,3C150,486.87,152.09,487.85,153.35,487.91Z"/><path class="cls-1" d="M74.32,431.73c-9.88,5-15,13.52-17.44,25.12.76,1.09,1.57,3.4,3.09,4,1,.41,3.05-1.55,4.5-2.62a4.35,4.35,0,0,0,1-1.93c2.83-7.11,6.44-13.6,13-18,1.72-1.16,3.06-3,1.6-5.42S76.4,430.67,74.32,431.73Z"/><path class="cls-1" d="M209.77,355.69c-.67,0-1.36,0-2.06-.09h0c-4-1-8-1.64-11.85-3-4.44-1.58-8.81-2.45-13.46-1.46-7.63,3.34-15.45,5.83-23.92,5.49l-13.22-.28c-19.22-2.47-34.1-12.47-46.5-26.79h0c-1.93-2-3.89-4-5.8-6-1-1-1.74-1.51-2.07.41.13,16.89.3,33.78.38,50.67,0,2.19.34,3.44,2.84,4.29,4.24,1.45,7.88,4,7.1,10.66-.38,3.2.47,6.55.76,9.83l1.28-.13c-.23-3.07-.45-6.13-.68-9.23,11.62.23,20.85,7.13,24.16,17.64A29.07,29.07,0,0,1,125,429.81c-1.86,3.83-1.5,6.67,1,10.09,7,9.36,8.64,20.12,5.6,31.13-1.72,6.25-5.29,12-8,17.82h21.64V356.35l13.22.28-4.75.21c-.06,1-.14,1.58-.14,2.18q.09,56.09.19,112.16c0,8.54,1.16,9.81,9.54,10.92.49.06,1,.06,1.48.14,7.52,1.24,15.36,1.26,22,5.9.58.4,1.66.1,2.51.1,8.57,0,17.14,0,25.71.08a15.65,15.65,0,0,1,3.29.76c-.06.34-.11.67-.17,1a25.48,25.48,0,0,1-2.73.35c-9.76.25-19.52.55-29.29.69-21.1.31-42.21.48-63.32.85-2.43,0-4.85,1-7.28,1.5.09.54.17,1.08.26,1.62h18.86q24-.14,48-.25,39.41-.25,78.81-.56l30.55-.61,2.25-.05,25.6-.9c-.1-.45-.21-.9-.31-1.35l-91-1.23V356.44l8.37-1.26-8.37,1.26Z"/><path class="cls-1" d="M177.14,60.71c.87,5.24,1.64,10.5,2.66,15.71.55,2.82,1.52,5.55,2.3,8.32q-2.49-12-5-24Z"/><path class="cls-1" d="M110.09,406.93c-4.67-2.9-9.77-4.67-15.6-3.47a25.22,25.22,0,0,1-9.78.32c-5.44-1.08-9.87.89-14.16,3.51a9.74,9.74,0,0,0-4.74,9.15,28.17,28.17,0,0,0,.44,3.69c1.29,5,3.7,6.26,8.35,4.34,11.11-4.59,22.2-5,33.16.33,2,1,3.17.47,4.48-.95A11.18,11.18,0,0,0,110.09,406.93Z"/><path class="cls-1" d="M264.35,102.75a98.82,98.82,0,0,1-.43,15,98.82,98.82,0,0,0,.43-15,9.31,9.31,0,0,0-.63-.81A9.31,9.31,0,0,1,264.35,102.75Z"/><polygon class="cls-1" points="277.88 293.7 277.88 293.7 277.89 293.7 277.89 293.7 277.88 293.7"/><path class="cls-1" d="M226,349.87c-5,3.07-10.08,5.78-16.24,5.82h0C215.93,355.65,221.05,352.94,226,349.87Z"/><path class="cls-1" d="M243,334a5.35,5.35,0,0,0-.2-3.09A5.34,5.34,0,0,1,243,334Z"/><path class="cls-1" d="M189.92,101.93c2.49-.38,5-.86,7.45-1.24-2.49.38-5,.86-7.45,1.24,0,1.39-.08,2.79-.08,4.18C189.84,104.72,189.9,103.32,189.92,101.93Z"/><path class="cls-1" d="M214.37,53.52l-3.7-.77c-4.75-.13-9.49-.3-14.23-.37,4.74.07,9.48.24,14.23.37Z"/><path class="cls-1" d="M220.09,107.1c.87-1.19,1.53-2.53,2.28-3.8a48.4,48.4,0,0,0-4.88-1.79c-.6-.16-1.37.38-2.07.6h0L190.25,112h15.57a13.08,13.08,0,0,1-3.2.93,13.28,13.28,0,0,0,3.21-.93l12.29-3.33A9.61,9.61,0,0,0,220.09,107.1Z"/><path class="cls-1" d="M222.09,107.31a4.61,4.61,0,0,1-1,.69A4.61,4.61,0,0,0,222.09,107.31Z"/><path class="cls-1" d="M221.26,100.3l27.37-3.43C245.81,91.74,227.37,93.45,221.26,100.3Z"/><path class="cls-1" d="M39.51,2.75A5.59,5.59,0,0,0,36.89,7c-.31,10.79-.33,21.59-.39,32.39A18.16,18.16,0,0,0,37,42.5a10.46,10.46,0,0,0,1.19-5.17q.1-11.53.12-23.09c0-9.71,0-9.71,9.18-11.56C44.89.57,42,1.72,39.51,2.75Z"/><path class="cls-1" d="M272.83,57.73h8C276.45,55.11,274.18,55.28,272.83,57.73Z"/><path class="cls-1" d="M280.59,64.52c-10.79-3.81-12.1-6.09-6.93-13.11l-4.94.57C263.83,57.14,259.51,63,254,67.34,236.76,80.73,216.78,84.77,195.39,83a51.73,51.73,0,0,1-5.45-1c-.08.47-.17.93-.25,1.4q.13,6.8.28,13.59c0,1.66,0,3.32-.05,5,0-1.66,0-3.32.05-5,1.44-.21,2.89-.35,4.32-.64,9.58-2,19.09-4.33,28.74-5.83,13.34-2.09,26.65-1.63,39.67,2.41,4.71,1.68,9.41,3.38,14.13,5,1.21.41,2.51.59,3.76.88l8.09,5.45-8.09-5.45Z"/><path class="cls-1" d="M284.41,50.85a8.18,8.18,0,0,0-1.93.53c3.25,3,10,2.62,12.58-.63-1.84.21-3.7-.11-4.79.67C287.94,53.08,286.15,53.8,284.41,50.85Z"/><path class="cls-1" d="M334.68,92.7a16,16,0,0,0,.53-3.94q.23-16.76.41-33.5l-.94-.14Z"/><path class="cls-1" d="M303.15,231h0v0Z"/><path class="cls-1" d="M335.16,2.91v32.3l.74-.15C335.72,24.34,337.32,13.56,335.16,2.91Z"/><path class="cls-1" d="M290.24,266.25a3.9,3.9,0,0,0,1.19.65h0A3.69,3.69,0,0,1,290.24,266.25Z"/><path class="cls-1" d="M297.23,253.45h0v0Z"/><path class="cls-1" d="M254.42,323.11a6.68,6.68,0,0,0-.49-4.32A6.68,6.68,0,0,1,254.42,323.11Z"/><path class="cls-2" d="M80.8,305.65c0-1.08.15-2.17.15-3.25q0-20.31,0-40.6c0-4.22,2.32-6.92,5.9-7s6,2.73,6,6.83q0,27.18,0,54.37a6.61,6.61,0,0,0,2.94,6.16,3.41,3.41,0,0,1,.6.6,4.29,4.29,0,0,1,.49.76,10.26,10.26,0,0,1,.67,1.72l.09.3c.37,1.32.66,2.75,1.1,4,12.4,14.32,27.28,24.32,46.5,26.79l13.22.28c8.47.34,16.29-2.15,23.92-5.49h0c.35-1,.56-2.12,1-3.08a4.7,4.7,0,0,1,.5-.91c7.56-10.66,15.47-21.08,22.79-31.9s14.56-22,21.2-33.36a177.89,177.89,0,0,0,18.26-42.48c4.34-15.76,6.66-31.89,8-48.23,1.2-14.4,3.55-28.71,5.41-43.06.24-1.89.51-3.77.79-5.65s.59-3.76.89-5.64c.46-2.82.92-5.64,1.35-8.46.28-1.88.55-3.77.79-5.65.12-1,.24-1.89.34-2.84.08-.7.16-1.41.22-2.12a98.82,98.82,0,0,0,.43-15,9.31,9.31,0,0,0-.63-.81l-.22-.27a3.7,3.7,0,0,1-.36-.55,1.69,1.69,0,0,1-.2-.57c-.73-5.59-1.37-6.47-6.83-7.86-3-.75-6-1.29-9-1.92l-.48.9,3.08,3.16c1.34,1.37,2.15,2.85-.49,3.45a85.28,85.28,0,0,1-9.28,1.46c-3.79.42-7.34,1.22-9.82,4.46h11.95c-3.16,2.21-10.06,2-12,.07h0c-.73-.37-1.48-.71-2.21-1.09l-.72-.4a17,17,0,0,1-1.8-1.39,9,9,0,0,0-1.16,2,13.31,13.31,0,0,1-.56,1.65c-.09.21-.19.41-.29.61a6.25,6.25,0,0,1-1.13,1.56l-.08.07a4.61,4.61,0,0,1-1,.69,5.75,5.75,0,0,1-3,.66h0L205.83,112a13.28,13.28,0,0,1-3.21.93,82.36,82.36,0,0,1-12.17,0c-.49-.06-1-.14-1.48-.22-3.45-.6-6.82-1.75-10.24-2.61-6-.08-11-2.85-15.94-5.6-1.14-.64-2.29-1.27-3.44-1.87-2-1.06-1.86-3,.59-3.65a13,13,0,0,1,5.85-.38c4.8,1,9.51,2.52,14.25,3.82,3.09-1.27.84-3.2.63-4.88-16.46-6.39-33.72-7.87-51.15-8a72.38,72.38,0,0,0-35.15,8.25c-36.26,19.25-55.34,49.59-57.3,90.5-1.12,23.54,3.67,46.15,12.39,68a194.31,194.31,0,0,0,23.95,43.5,9.75,9.75,0,0,1,7.39,6ZM226.61,105.57l2,1.65,1.16.72-.44.45c-.24-.39-.48-.78-.73-1.17h0l-2.61-.38C226.18,106.41,226.39,106,226.61,105.57ZM70.49,186.83A16.6,16.6,0,0,1,64.05,194c-4.63,2.76-8.79.51-10.08-4.81a60.18,60.18,0,0,1-.88-6.46c2.37-28.82,14.07-51.83,39.79-66.3,6.34-3.58,13.13-6.37,19.77-9.41a16.5,16.5,0,0,1,4.66-1.21c2.64-.36,5.51-.58,6.53,2.66s-1.63,4.38-3.76,5.57C97.9,126.42,84.58,145.8,76.4,169.23,74.36,175.08,73,181.18,70.49,186.83Z"/><path class="cls-3" d="M284.34,293.94a9.07,9.07,0,0,0,5.39-2.89,50.25,50.25,0,0,0,5.77-8.62c7.65-13.89,14.39-28.2,18.9-43.47,3.37-11.38,6.4-22.84,6.66-34.82,1.95-19.21,1.16-38.15-6.86-56.08a118.07,118.07,0,0,0-9.51-16.62c-3-4.6-2.87-7.43,1.69-10.9l-17.7-16.31-8.09-5.45c-1.25-.29-2.55-.47-3.76-.88-4.72-1.63-9.42-3.33-14.13-5l1.65,9.86a98.82,98.82,0,0,1-.43,15c-.06.71-.14,1.42-.22,2.12-.1,1-.22,1.89-.34,2.84-.24,1.88-.51,3.77-.79,5.65-.43,2.82-.89,5.64-1.35,8.46q-.45,2.82-.89,5.64c-.28,1.88-.55,3.76-.79,5.65-1.86,14.35-4.21,28.66-5.41,43.06-1.35,16.34-3.67,32.47-8,48.23a177.89,177.89,0,0,1-18.26,42.48c-6.64,11.37-13.82,22.45-21.2,33.36s-15.23,21.24-22.79,31.9a4.7,4.7,0,0,0-.5.91c-.41,1-.62,2.08-1,3.08h0c4.65-1,9-.12,13.46,1.46,3.82,1.36,7.89,2,11.85,3h0l2.06.09c6.16,0,11.28-2.75,16.24-5.82l1.53-.95c1.67-1.06,3.35-2.13,5.05-3.13a11.9,11.9,0,0,0,1.34-.93c1.28-1,2.43-2.27,3.68-3.36a12.56,12.56,0,0,0,1.9-1.07A156.51,156.51,0,0,0,268,309.31c1.33-1.88,2.6-3.81,3.83-5.77.82-1.3,1.62-2.62,2.42-3.93.41-.66.81-1.32,1.21-2q1.2-2,2.43-3.93h0"/><path class="cls-4" d="M370.5,43.12l-5.38-.44c0-4.08,0-8,0-12,0-2.3.28-4.52-3.29-4.28-3.11.21-5.4.66-5,4.62a74.59,74.59,0,0,1,.05,7.48l-1,.1a8.21,8.21,0,0,1-.36-1.6c0-4.72,0-9.44-.07-14.16,0-5.46-.1-10.93-.14-16.4,0-3.2-1.88-4.31-4.8-4.3s-3.85,1.61-3.81,4.28c.05,3.85-.06,7.7-.07,11.56,0,5,0,9.94,0,14.91l-1.32,0c-.11-1.26-.3-2.51-.31-3.76q-.06-11.74-.05-23.48c0-2.32-.38-4.25-3.24-4.47C336.38.85,331.08.18,325.76,0c-7.47-.22-8.9,1.29-8.94,8.83-.05,9.69,0,19.38,0,29.07,0,1.55-.13,3.11-.21,4.86-5.59,0-10.79,0-16-.05a2.18,2.18,0,0,1-1.73-1c-1.13-3.27-3.06-4-6-2.24a1.35,1.35,0,0,1-1.21-.07c-2.6-2.37-4.72-1-6.77,1-2.72-2.92-5.17-2.65-7.44.61-.57-.89-1-1.61-1.47-2.33-1.16.38-2.75.4-3.39,1.2-2.55,3.17-5.91,3.14-9.45,3.11-9.38-.07-18.75,0-28.32-.53,8.26-6.88,18.42-10.13,28.05-14.34-.08-.36-.17-.72-.26-1.08-1.57,0-3.28-.42-4.68.07-10.07,3.52-19.89,7.59-28.43,14.22a6.8,6.8,0,0,1-3.7,1.57c-8.93,0-17.86-.12-26.79-.21-1.61.08-3.22.23-4.83.23Q125.84,43,57.45,43a16.31,16.31,0,0,1-1.93-.23V39.67c0-10.68,0-21.37-.08-32.05C55.37,1.55,53.89.14,47.82.3c-4.46.13-8.9.65-13.36.87-6.21.31-6.8.73-6.93,6.92-.2,9.31-.21,18.63-.32,28,0,1.25-.18,2.5-.28,3.75H26c-.16-1.6-.44-3.2-.46-4.81-.13-9.56-.16-19.13-.32-28.69-.06-3.93-1.62-4.92-5.45-3.92C17.32,3,16.82,4.64,16.8,6.85q-.11,16-.37,32a22.83,22.83,0,0,1-.73,3.79l-1.09-.13c-.23-5.22-.46-10.45-.69-15.65H6.48V42.78l-5.77.41C-.79,51-.37,51.72,6.46,52.54V63.93c0,2.52.15,4.79,3.62,4.79s4.64-1.6,4.52-4.85c-.13-3.6,0-7.2,0-10.81H16c.09,1.53.24,3.06.27,4.6.21,10.18.36,20.36.58,30.55.09,4.22,1.4,5.71,4.66,5.69,4,0,3.59-2.86,3.68-5.5.16-4.9.4-9.8.61-14.7.83,5,.75,9.87.86,14.78.1,4.34,1.83,6,6.2,6.17,1.67.07,3.35,0,4.55,0-2.09-14.7,0-28.86-.39-43h1V94.3a33.38,33.38,0,0,0,3.73,1c12.67,1.57,13.67.68,13.71-12.16,0-10.27,0-20.54,0-31.25h5.11c32.79,0,65.59.08,98.39,0,4.23,0,8.46-1.11,12.71-1.52a6.19,6.19,0,0,1,3.79.78c.41.28-.31,2.14-.39,3.29s0,2.48-.05,3.72c4.9-.24,7.11-.35,8.1,1.1a2.91,2.91,0,0,1,.2.35s0,0,0,0a.42.42,0,0,1,0,.1l.12.32a4,4,0,0,1,.14.52c0,.16.07.33.1.51.08.58.13,1.26.16,2.07,0,.4,0,.83,0,1.29,0,.7,0,1.47,0,2.32,0,2.08.06,4.16.1,6.24.73,1.94,1.67,3.85,2.3,5.81a16.83,16.83,0,0,1,.49,2c.36,2.09,1,2.84,3,2.64.08-.47.17-.93.25-1.4h0q.74-2.56,1.46-5.13l-1.59-3.91h0l-1,1.06.33-1.12c.43-6,.81-12,1.33-18,.08-.92.79-2.57,1.2-2.57,1.59,0,3.17,0,4.75.05,4.74.07,9.48.24,14.23.37l3.7.77h0c1.68-.38,3.37-1,5.06-1.29a9.55,9.55,0,0,1,1.68-.16C237,51.93,252.85,52,268.72,52l4.94-.57c-5.17,7-3.86,9.3,6.93,13.11V98.78l8.09,5.45V64.54c6.23-3,7-3.91,9.16-10.62.22-.69,1-1.69,1.52-1.71,5.75-.12,11.51-.07,17.45-.07,0,4.7,0,8.93,0,13.15.07,8.19,0,16.39.32,24.58.18,4.43,1.82,5.71,6.16,5.56,5.7-.2,11.42-.4,17.09-1,1.86-.21,3.58-1.7,5.54-2.69,1.06,2.91,4,2.66,6.62,1.93,2.84-.77,2.79-3.44,2.81-5.84.06-10.44.09-20.87.2-31.31,0-1.86.34-3.72.53-5.59a86.29,86.29,0,0,1,.69,13.86c0,3.32,2.07,3.73,4.69,3.83s3.81-1,3.73-3.72c-.13-4.17,0-8.35,0-12.46C371.68,51.64,372.86,49.46,370.5,43.12ZM26.76,58.54l-.6,0V45.21l.6,0Zm11.57-44.3q0,11.55-.12,23.09A10.46,10.46,0,0,1,37,42.5a18.16,18.16,0,0,1-.52-3.15c.06-10.8.08-21.6.39-32.39a5.59,5.59,0,0,1,2.62-4.21c2.48-1,5.38-2.18,8-.07C38.33,4.53,38.34,4.53,38.33,14.24Zm297.29,41q-.19,16.76-.41,33.5a16,16,0,0,1-.53,3.94V55.12h0V52.3l1.15.09Zm.28-20.2h0v3.55l-.74,0V2.91C337.32,13.56,335.72,24.34,335.9,35.06Zm10.42,54c-2-2.36-2.16-41,0-51.84Z"/><path class="cls-5" d="M134.64,495.1H115.78c-.09-.54-.17-1.08-.26-1.62,2.43-.52,4.85-1.46,7.28-1.5,21.11-.37,42.22-.54,63.32-.85,9.77-.14,19.53-.44,29.29-.69a25.48,25.48,0,0,0,2.73-.35c.06-.34.11-.67.17-1a15.65,15.65,0,0,0-3.29-.76c-8.57-.08-17.14-.06-25.71-.08-.85,0-1.93.3-2.51-.1-6.64-4.64-14.48-4.66-22-5.9-.49-.08-1-.08-1.48-.14-8.38-1.11-9.52-2.38-9.54-10.92q-.1-56.08-.19-112.16c0-.6.08-1.21.14-2.18l4.75-.21-13.22-.28v132.5H123.62c2.67-5.82,6.24-11.57,8-17.82,3-11,1.37-21.77-5.6-31.13-2.53-3.42-2.89-6.26-1-10.09a29.07,29.07,0,0,0,1.78-22.08c-3.31-10.51-12.54-17.41-24.16-17.64.23,3.1.45,6.16.68,9.23l-1.28.13c-.29-3.28-1.14-6.63-.76-9.83.78-6.68-2.86-9.21-7.1-10.66-2.5-.85-2.83-2.1-2.84-4.29-.08-16.89-.25-33.78-.38-50.67.09-20.39.23-40.79.23-61.18a7.11,7.11,0,0,0-1.53-4.66A5.49,5.49,0,0,0,85,256.91c-1.09.31-1.9,2.25-2.47,3.62a4.23,4.23,0,0,0-.25,1.6c0,.57,0,1.15,0,1.71l0,10.36q-.06,18.63-.1,37.25a40.81,40.81,0,0,1,.71,5.13c.07,8.44,0,16.88,0,25.32,0,11.43,0,22.85-.17,34.27,0,1.79-.56,4.33-1.78,5.18-3,2-4.91,4.41-5.32,8l-2.07,2.59c-5.26,3.74-11.23,6.72-14.5,12.71a35.67,35.67,0,0,1-3.93,6.49c-.07-1.31-.14-2.61-.22-3.92l-.76-1a53.86,53.86,0,0,0-1.63,5.3c-1.42,7.18.54,13.81,3.79,20.09,1.42,2.74,1.47,4.82-.53,7.36-4.59,5.81-6.63,12.65-7.2,20-1.71,22,15,39.63,33.45,39.81,13.53.14,27.06-.18,40.59-.3,3.38-.6,6.76-1.28,10.16-1.75C134,496.57,135.76,497.55,134.64,495.1ZM153.48,483c4.71.28,9.41.63,14.1,1.12,3.19.34,6.36.93,9.52,1.48.5.09.93.59,2.4,1.58-5.36.26-9.61.52-13.87.65-4.09.12-8.2.25-12.28.05-1.26-.06-3.4-1-3.52-1.85C149.48,483.69,151.44,482.91,153.48,483ZM78.55,438.3c-6.59,4.44-10.2,10.93-13,18a4.35,4.35,0,0,1-1,1.93c-1.45,1.07-3.52,3-4.5,2.62-1.52-.64-2.33-2.95-3.09-4,2.42-11.6,7.56-20.07,17.44-25.12,2.08-1.06,4.31-1.35,5.83,1.15S80.27,437.14,78.55,438.3Zm33.69-14.45c-1.31,1.42-2.47,1.92-4.48.95-11-5.29-22.05-4.92-33.16-.33-4.65,1.92-7.06.67-8.35-4.34a28.17,28.17,0,0,1-.44-3.69,9.74,9.74,0,0,1,4.74-9.15c4.29-2.62,8.72-4.59,14.16-3.51a25.22,25.22,0,0,0,9.78-.32c5.83-1.2,10.93.57,15.6,3.47A11.18,11.18,0,0,1,112.24,423.85Z"/><path class="cls-6" d="M209.77,355.69h0l-2.06-.09h0C208.41,355.67,209.1,355.69,209.77,355.69Z"/><path class="cls-3" d="M277.89,293.7q-1.23,2-2.43,3.93c-.4.66-.8,1.32-1.21,2-.8,1.31-1.6,2.63-2.42,3.93-1.23,2-2.5,3.89-3.83,5.77a156.51,156.51,0,0,1-28.49,31.12,12.56,12.56,0,0,1-1.9,1.07c-1.25,1.09-2.4,2.34-3.68,3.36a11.9,11.9,0,0,1-1.34.93c-1.7,1-3.38,2.07-5.05,3.13l-1.53.95c-5,3.07-10.08,5.78-16.24,5.82l18.77.75,8.37-1.26c8.13-1.44,15.16-5.39,21.73-10.05,15.23-10.79,27.51-24.54,38.41-39.55,19.67-27.09,31.58-57.42,36.42-90.43,3.63-24.76.55-48.73-11-71.26-4.34-8.47-9-16.73-16.1-23.35-4.56,3.47-4.71,6.3-1.69,10.9a118.07,118.07,0,0,1,9.51,16.62c8,17.93,8.81,36.87,6.86,56.08-.26,12-3.29,23.44-6.66,34.82-4.51,15.27-11.25,29.58-18.9,43.47a50.25,50.25,0,0,1-5.77,8.62,9.07,9.07,0,0,1-5.39,2.89Z"/><path class="cls-5" d="M228.54,490.15l91,1.23h7.71c0,.45,0,.9,0,1.35H319.8l-25.6.9c-.71,1.77-1.46,1.83-2.25.05l-30.55.61a28.12,28.12,0,0,0,3.93.61c6.28.06,12.57-.07,18.84.11,1.15,0,2.27,1.16,3.4,1.79,17.5-.28,35-.43,52.49-.91A125.08,125.08,0,0,0,355.91,494c.92-.14,1.66-1.51,2.48-2.31-.81-.67-1.52-1.75-2.43-1.94a50.77,50.77,0,0,0-9.88-1.55q-34.26-.35-68.53-.35c-4.93,0-9.82.59-14.16-2.67a10.77,10.77,0,0,0-4.22-1.37c-5.7-1.17-11.4-2.35-17.13-3.35-3.73-.65-5.19-2.71-5.19-6.42q.09-59.41.06-118.84l-8.37,1.26Z"/><path class="cls-7" d="M229.54,41.35c8.54-6.63,18.36-10.7,28.43-14.22,1.4-.49,3.11-.07,4.68-.07.09.36.18.72.26,1.08-9.63,4.21-19.79,7.46-28.05,14.34,9.57.51,18.94.46,28.32.53,3.54,0,6.9.06,9.45-3.11.64-.8,2.23-.82,3.39-1.2,6.07-5.59,9.12-13,12.76-20.27-1-.48-1.52-.76-2.08-1a15.43,15.43,0,0,0-2.09-.78c-24.22-6.52-47.15-3.64-68.52,9.74-6.76,4.24-12.72,9.46-17,16.31,8.93.09,17.86.25,26.79.21A6.8,6.8,0,0,0,229.54,41.35Z"/><path class="cls-8" d="M265.33,494.9a28.12,28.12,0,0,1-3.93-.61q-39.4.29-78.81.56-24,.15-48,.25c1.12,2.45-.63,1.47-1.77,1.63-3.4.47-6.78,1.15-10.16,1.75,1.24,0,2.47.1,3.71.08l137-1.48,24.17-.28c-1.13-.63-2.25-1.76-3.4-1.79C277.9,494.83,271.61,495,265.33,494.9Z"/><path class="cls-6" d="M82.32,263.84c0-.56,0-1.14,0-1.71a4.23,4.23,0,0,1,.25-1.6c.57-1.37,1.38-3.31,2.47-3.62a5.49,5.49,0,0,1,4.55,1.25,7.11,7.11,0,0,1,1.53,4.66c0,20.39-.14,40.79-.23,61.18.33-1.92,1.1-1.43,2.07-.41,1.91,2,3.87,4,5.8,6h0c-.44-1.22-.73-2.65-1.1-4l-.09-.3a10.26,10.26,0,0,0-.67-1.72,4.29,4.29,0,0,0-.49-.76,3.41,3.41,0,0,0-.6-.6,6.61,6.61,0,0,1-2.94-6.16q.06-27.18,0-54.37c0-4.1-2.46-6.86-6-6.83s-5.89,2.73-5.9,7q0,20.29,0,40.6c0,1.08-.1,2.17-.15,3.25a9.75,9.75,0,0,0-7.39-6h0l8.83,11.81q0-18.63.1-37.25Z"/><path class="cls-9" d="M215.42,102.11a7.22,7.22,0,0,0-3.1-2.53,5.07,5.07,0,0,0-.83-.28,8.18,8.18,0,0,0-1.7-.23c-2.6-.06-5.35,1-7.94,1.12-1.5.1-3,.28-4.48.5-2.49.38-5,.86-7.45,1.24,0,1.39-.08,2.79-.08,4.18,0,.46,0,.93,0,1.39.07,1.83-.49,2.73-2.51,2.73s-2.86-.6-2.9-2.76c-.13-7.55-.45-15.09-.7-22.63l-1.19,0c-.48.46.07,1.5,0,2.18a.8.8,0,0,1-.09.26c-.16.29-.57.44-1.45.31q-.16,4.92-.34,9.84c.21,1.68,2.46,3.61-.63,4.88l.71,4.06,1.57.45L178.73,110c3.42.86,6.79,2,10.24,2.61.49.08,1,.16,1.48.22a82.36,82.36,0,0,0,12.17,0,13.08,13.08,0,0,0,3.2-.93H190.25Z"/><path class="cls-9" d="M182.57,84.89l1.19,0q.08-6,.16-11.91c0-2.08-.1-4.16-.1-6.24,0-.85,0-1.62,0-2.32,0-.46,0-.89,0-1.29,0-.81-.08-1.49-.16-2.07,0-.18-.06-.35-.1-.51a4,4,0,0,0-.14-.52l-.12-.32a.42.42,0,0,0,0-.1s0,0,0,0a2.91,2.91,0,0,0-.2-.35c-1-1.45-3.2-1.34-8.1-1.1h0c.06.41.13.82.2,1.23l2,1.4h0q2.48,12,5,24A1,1,0,0,1,182.57,84.89Z"/><path class="cls-8" d="M60.05,397.31q-2.89,4.45-5.81,8.91l.76,1c1.73-2.88,3.48-5.74,5.15-8.65C60.33,398.26,60.12,397.75,60.05,397.31Z"/><path class="cls-7" d="M67.34,392.9l6.31-1,2.07-2.59-9,3Z"/><path class="cls-8" d="M66.77,392.37l-6.13,4.49,6.69-4Z"/><path class="cls-8" d="M60.64,396.86l-.6.35s0,.07,0,.1l0-.05Z"/><path class="cls-6" d="M201.85,100.19c2.59-.17,5.34-1.18,7.94-1.12a8.18,8.18,0,0,1,1.7.23,5.07,5.07,0,0,1,.83.28,7.22,7.22,0,0,1,3.1,2.53h0c.7-.22,1.47-.76,2.07-.6a48.4,48.4,0,0,1,4.88,1.79c-.75,1.27-1.41,2.61-2.28,3.8a9.61,9.61,0,0,1-2,1.56h0a5.75,5.75,0,0,0,3-.66,4.61,4.61,0,0,0,1-.69l.08-.07a6.25,6.25,0,0,0,1.13-1.56c.1-.2.2-.4.29-.61a13.31,13.31,0,0,0,.56-1.65,9,9,0,0,1,1.16-2,17,17,0,0,0,1.8,1.39l.72.4c.73.38,1.48.72,2.21,1.09h0c2,1.9,8.87,2.14,12-.07H230.12c2.48-3.24,6-4,9.82-4.46a85.28,85.28,0,0,0,9.28-1.46c2.64-.6,1.83-2.08.49-3.45l-3.08-3.16.48-.9c3,.63,6,1.17,9,1.92,5.46,1.39,6.1,2.27,6.83,7.86a1.69,1.69,0,0,0,.2.57,3.7,3.7,0,0,0,.36.55l.22.27a9.31,9.31,0,0,1,.63.81l-1.65-9.86c-13-4-26.33-4.5-39.67-2.41-9.65,1.5-19.16,3.87-28.74,5.83-1.43.29-2.88.43-4.32.64,0,1.66,0,3.32-.05,5,2.49-.38,5-.86,7.45-1.24C198.86,100.47,200.35,100.29,201.85,100.19Zm46.78-3.32-27.37,3.43C227.37,93.45,245.81,91.74,248.63,96.87Z"/><path class="cls-9" d="M180.75,106.42c-.24-1.35-.47-2.71-.71-4.06-4.74-1.3-9.45-2.78-14.25-3.82a13,13,0,0,0-5.85.38c-2.45.63-2.63,2.59-.59,3.65,1.15.6,2.3,1.23,3.44,1.87,5,2.75,10,5.52,15.94,5.6l3.59-3.17Z"/><path class="cls-6" d="M228.58,107.22c.25.39.49.78.73,1.17l.44-.45-1.16-.72-2-1.65c-.22.42-.43.84-.64,1.27l2.61.38Z"/><path class="cls-7" d="M254,67.34c5.55-4.31,9.87-10.2,14.76-15.36-15.87,0-31.74,0-47.61.09a9.55,9.55,0,0,0-1.68.16c-1.69.29-3.38.91-5.06,1.29h0c-4.18,3.89-8.41,7.72-12.55,11.65-1.38,1.31-2.75,2.62-4.11,4a89,89,0,0,0-6.31,7.71q-.72,2.57-1.46,5.13h0a51.73,51.73,0,0,0,5.45,1C216.78,84.77,236.76,80.73,254,67.34Z"/><path class="cls-7" d="M210.67,52.75c-4.75-.13-9.49-.3-14.23-.37-1.58,0-3.16-.05-4.75-.05-.41,0-1.12,1.65-1.2,2.57-.52,6-.9,12-1.33,18,.22,0,.44,0,.65.06h0A64.93,64.93,0,0,1,210.67,52.75Z"/><path class="cls-5" d="M183.76,84.84c.25,7.54.57,15.08.7,22.63,0,2.16.9,2.76,2.9,2.76s2.58-.9,2.51-2.73c0-.46,0-.93,0-1.39,0-1.39.06-2.79.08-4.18,0-1.66,0-3.32.05-5q-.15-6.8-.28-13.59c-2,.2-2.62-.55-3-2.64a16.83,16.83,0,0,0-.49-2c-.63-2-1.57-3.87-2.3-5.81Q183.83,78.89,183.76,84.84Z"/><path class="cls-8" d="M201.82,65.17c4.14-3.93,8.37-7.76,12.55-11.65h0l-3.7-.77a64.93,64.93,0,0,0-20.86,20.17l1.59,3.91a89,89,0,0,1,6.31-7.71C199.07,67.79,200.44,66.48,201.82,65.17Z"/><path class="cls-8" d="M188.83,74l1-1.06c-.21,0-.43,0-.65-.06Z"/><path class="cls-7" d="M327.2,491.38h-7.71c.1.45.21.9.31,1.35h7.39C327.2,492.28,327.2,491.83,327.2,491.38Z"/><path class="cls-8" d="M294.2,493.63l-2.25.05C292.74,495.46,293.49,495.4,294.2,493.63Z"/><path d="M636.53,60.76,607.32,138.7l-14.61-3.59,3.16-16a82.41,82.41,0,0,0-17.82-8.55,132.13,132.13,0,0,0-16.3-4.42,101.75,101.75,0,0,0-16.57-1.85q-8.4,0-17.17.81a122.32,122.32,0,0,0-16.95,2.78,86.58,86.58,0,0,0-15.42,5.24A49.65,49.65,0,0,0,483,121.15a35.76,35.76,0,0,0-8.55,11.4,34.43,34.43,0,0,0-3.17,15.09,42.89,42.89,0,0,0,4.36,19.41A41.87,41.87,0,0,0,488.33,182a61.47,61.47,0,0,0,20.61,9.59,105.11,105.11,0,0,0,28,3.38,150.44,150.44,0,0,0,21.91-2.07c3.12-.51,6.47-1.16,10-2s7.15-1.8,10.79-3,7.28-2.6,11-4.2a83.84,83.84,0,0,0,10.63-5.55l11.23,34.44a22.49,22.49,0,0,1-7.25,4.58,73.41,73.41,0,0,1-10.35,3.43,123.15,123.15,0,0,1-12.16,2.46q-6.43,1-12.75,1.63-14.83,1.53-32,1.75-22.68,0-38.92-6.38t-26.65-17.22A67.56,67.56,0,0,1,457,177.73a92,92,0,0,1-4.9-30.09,78.47,78.47,0,0,1,4.19-26.32,75.05,75.05,0,0,1,11.45-21.15A79.75,79.75,0,0,1,484.57,84,99.84,99.84,0,0,1,504.9,72.86a110.56,110.56,0,0,1,22-6.38,105.7,105.7,0,0,1,21.86-1.68q8.07.44,17.22,1.85,7.86,1.2,17.83,3.6a157.49,157.49,0,0,1,20.54,6.54l4.47-21.59Z"/><path d="M787.51,226h-59L730,208.14a75.75,75.75,0,0,1-16.18,10,96.12,96.12,0,0,1-14.12,5.13,62.34,62.34,0,0,1-13.95,2.18q-10.37,0-17.23-2.68a26.36,26.36,0,0,1-11-7.52,29,29,0,0,1-5.84-11.66,61.49,61.49,0,0,1-1.74-15.21c0-3,0-5.59.11-7.85s.2-4.41.38-6.48.4-4.2.65-6.38.59-4.69,1-7.52.83-6.12,1.3-9.87,1-8.23,1.69-13.46l-23.22,1.42,3.38-26.16,53.85,2.28q-1.3,12.1-2.28,21T685.1,150.8q-.72,6.54-1.2,11.12c-.33,3.06-.6,5.76-.82,8.12s-.37,4.47-.44,6.33-.11,3.8-.11,5.83a53.47,53.47,0,0,0,.77,9.26A22.71,22.71,0,0,0,686,199.1a14.14,14.14,0,0,0,5,5.12,14.75,14.75,0,0,0,7.69,1.85,30.63,30.63,0,0,0,11.55-3.16A47.05,47.05,0,0,0,721,195.39q5.73-5.13,11-14.72l3.37-46-24.63.87L713,112.11l74.56,2.72v17.55l-24.74,1.2,1.3,71.18,23.44,2Z"/><path d="M888.23,198.55v18.31L804.3,227.55l-3.16-27.91,27.9-.22,1.31-60.5-33.9-2.51V117.88L867,111.67,863.38,136a84.85,84.85,0,0,1,6.32-5.83q3.93-3.33,8.67-6.76t10.14-6.92q5.38-3.5,10.84-6.38a114,114,0,0,1,10.74-5,54.86,54.86,0,0,1,9.76-3l2.94,36.19A112.6,112.6,0,0,0,877,147a65.21,65.21,0,0,0-14.72,8.61L854.66,199Z"/><path d="M1065.92,211l-5.56,20.16-54.18-4c.15-1.09.33-2.29.55-3.6s.43-2.54.65-3.7c.29-1.31.55-2.62.77-3.93A72.92,72.92,0,0,1,989,223.3a83.35,83.35,0,0,1-33,1,47,47,0,0,1-13.35-4.2,28.8,28.8,0,0,1-10-8,19.52,19.52,0,0,1-3.92-12.48,25.58,25.58,0,0,1,3.59-13.74,33.45,33.45,0,0,1,9.49-9.86,52.63,52.63,0,0,1,13.35-6.6,116.44,116.44,0,0,1,15.15-4,122.88,122.88,0,0,1,15-2q7.31-.48,12.87-.49c3.92,0,7.44.1,10.57.28s5.92.45,8.39.81a92.54,92.54,0,0,0,1.31-15.15,30.88,30.88,0,0,0-1.36-9.48,15.2,15.2,0,0,0-4.69-7.09,21.87,21.87,0,0,0-8.83-4.25A48.21,48.21,0,0,0,989.83,127a26.08,26.08,0,0,0-10,3,28.92,28.92,0,0,0-4,2.73,25,25,0,0,0-3.81,3.92,26.87,26.87,0,0,0-3.22,5.4,31.54,31.54,0,0,0-2.18,7l-35.21,1.74a36.42,36.42,0,0,1,3.82-13.35,39.53,39.53,0,0,1,7.47-10.14,48.21,48.21,0,0,1,9.75-7.36,77.13,77.13,0,0,1,10.79-5.12,104.8,104.8,0,0,1,28.67-5.78q14.18-.21,24,2.67a50.53,50.53,0,0,1,16.3,7.74,38.11,38.11,0,0,1,10,11,49.67,49.67,0,0,1,5.23,12.15,52.36,52.36,0,0,1,1.85,11.45c.15,3.6.18,6.56.11,8.88a104.33,104.33,0,0,1-1.53,10.69q-1,5.55-2.89,14t-5.17,20.06Zm-51.34-32.16c-1.68-.15-3.49-.25-5.45-.33s-4-.11-6.11-.11c-1.82,0-4,.08-6.7.22s-5.44.42-8.34.82a80.76,80.76,0,0,0-8.72,1.69,37.33,37.33,0,0,0-7.8,2.83,18.37,18.37,0,0,0-5.61,4.25,8.83,8.83,0,0,0-.6,10.85,13.37,13.37,0,0,0,4.31,4,19.41,19.41,0,0,0,6.37,2.34,21.78,21.78,0,0,0,7.69.06A139.18,139.18,0,0,0,999,201.66q7.26-2.24,12.48-4.31c.59-3,1.13-6.14,1.64-9.26S1014.14,181.87,1014.58,178.82Z"/><path d="M1220.71,228.85l-55.37-2.61.21-13.41a52.87,52.87,0,0,1-13.62,7.85,78.59,78.59,0,0,1-26.6,5.56,60.88,60.88,0,0,1-10.52-1,58.94,58.94,0,0,1-23.76-10.08,45.06,45.06,0,0,1-10.36-10.36,52.11,52.11,0,0,1-7.3-14.77,63.84,63.84,0,0,1-2.78-19.78,66.78,66.78,0,0,1,2.78-20.22,51.94,51.94,0,0,1,7.46-15.16,45.67,45.67,0,0,1,11-10.68,60.07,60.07,0,0,1,13.19-6.87,72,72,0,0,1,14.12-3.65,93.26,93.26,0,0,1,13.84-1.09,76.57,76.57,0,0,1,22.84,4,44.67,44.67,0,0,1,11.06,5.56l.66-38.37-33.69,3.6L1133,68.61,1205,61.85,1197,207.49h23.76Zm-85.79-100.18a18.66,18.66,0,0,0-11.71,3.82,31.66,31.66,0,0,0-8.29,9.76,48.64,48.64,0,0,0-5,13.19,63.56,63.56,0,0,0-1.63,14,71.31,71.31,0,0,0,1.47,14.07,48.48,48.48,0,0,0,4.74,13.41A30.81,30.81,0,0,0,1123,207a20,20,0,0,0,12.59,4,26,26,0,0,0,9.48-2.51,46.84,46.84,0,0,0,9.65-6.05,59.84,59.84,0,0,0,11.06-11.94l.88-48.72a68.09,68.09,0,0,0-12.27-7.53,69.06,69.06,0,0,0-10.08-3.81A50.42,50.42,0,0,0,1134.92,128.67Z"/><path d="M1285,230.16q-15.15,0-26.11-4.58a49.06,49.06,0,0,1-18-12.42,50.36,50.36,0,0,1-10.42-18.32,72,72,0,0,1-3.37-22.23q0-15.81,5.5-27.69a56.35,56.35,0,0,1,14.93-19.79,63.43,63.43,0,0,1,21.86-11.83,86.94,86.94,0,0,1,26.27-3.92q15.48,0,26.11,4.58A45.91,45.91,0,0,1,1339,126.22a47.26,47.26,0,0,1,9.43,17.66,74.9,74.9,0,0,1,2.89,20.88,73.22,73.22,0,0,1-4.74,26.92,57.49,57.49,0,0,1-34.34,33.85A76.41,76.41,0,0,1,1285,230.16Zm4.69-105.95a20,20,0,0,0-10.09,2.45,25,25,0,0,0-7.41,6.43,38.24,38.24,0,0,0-5.18,9,65.38,65.38,0,0,0-3.27,10.2,80.33,80.33,0,0,0-1.69,10.08c-.32,3.27-.49,6.1-.49,8.5a77.88,77.88,0,0,0,.55,8.78,66.59,66.59,0,0,0,1.85,9.75,57.85,57.85,0,0,0,3.49,9.6,32.75,32.75,0,0,0,5.45,8.28,25.55,25.55,0,0,0,7.68,5.78,22.81,22.81,0,0,0,10.2,2.18,21.68,21.68,0,0,0,10.08-2.18,21.93,21.93,0,0,0,7.09-5.78,30.12,30.12,0,0,0,4.63-8.17,57.41,57.41,0,0,0,2.67-9.32,75.83,75.83,0,0,0,1.25-9.22q.33-4.47.33-7.95,0-4.7-.49-10.14a91.4,91.4,0,0,0-1.64-10.85,60,60,0,0,0-3.16-10.35,34.71,34.71,0,0,0-5-8.72,23.58,23.58,0,0,0-7.2-6.06A19.85,19.85,0,0,0,1289.72,124.21Z"/><path d="M580.06,454.13a57,57,0,0,1-11.5,18.7,67.52,67.52,0,0,1-16.62,13.08,77.83,77.83,0,0,1-19.62,7.69,86.54,86.54,0,0,1-20.39,2.5,66.43,66.43,0,0,1-24.85-4.36A56,56,0,0,1,468.55,480a53.53,53.53,0,0,1-11.94-17.39,62.26,62.26,0,0,1-5-21.2q0-17.11,5.73-29.27A53.09,53.09,0,0,1,473,392.33,64.61,64.61,0,0,1,496,381.15a107.64,107.64,0,0,1,28-3.54,86.8,86.8,0,0,1,11.29.76,56.08,56.08,0,0,1,11.39,2.73,46.66,46.66,0,0,1,10.63,5.39,38.91,38.91,0,0,1,9.15,8.83,51.42,51.42,0,0,1,6.93,12.92A73,73,0,0,1,577.34,426l-89.5,16A80.8,80.8,0,0,0,491,456.75a46.23,46.23,0,0,0,6.05,12.7,28.73,28.73,0,0,0,9.43,8.72,25,25,0,0,0,13.35,3,35.29,35.29,0,0,0,14.83-5,29.82,29.82,0,0,0,5.23-4.3,25.44,25.44,0,0,0,4.36-6.16,30.18,30.18,0,0,0,2.73-8.39,41.42,41.42,0,0,0,.32-11ZM538.75,419a34.3,34.3,0,0,0-1.85-8.94,24.5,24.5,0,0,0-3.55-6.54,22.15,22.15,0,0,0-4.68-4.52,27.65,27.65,0,0,0-5.18-2.89,33.43,33.43,0,0,0-13.74-2.29,24.84,24.84,0,0,0-11.66,4.09,22.28,22.28,0,0,0-6.92,8,33.51,33.51,0,0,0-3.33,10.52,78.87,78.87,0,0,0-.87,11.77Z"/><path d="M666.18,470.38l-2,23.54-74.89-.54V473.54l22.57-.87-1.53-68.57-23.22.65V384.91l61.15-7.85-1.52,20.82a74.65,74.65,0,0,1,15.75-9.64,122.52,122.52,0,0,1,14-5.29,79.46,79.46,0,0,1,14-2.72,51.83,51.83,0,0,1,18.37,2.88,31.17,31.17,0,0,1,12.32,8.18A32.43,32.43,0,0,1,728.1,404a58.34,58.34,0,0,1,2.18,16.46c0,2.54,0,4.8-.11,6.76s-.2,3.87-.38,5.72-.4,3.78-.65,5.78l-.93,7.14c-.37,2.76-.78,6-1.25,9.76s-1,8.23-1.59,13.46l23.22-1.31-3.16,26.16-58.32-2.29q1.3-12.75,2.29-21.91t1.75-15.64q.75-6.48,1.19-10.9t.77-7.74c.22-2.22.36-4.23.43-6.05s.11-3.78.11-5.89a52.66,52.66,0,0,0-.76-9.21,22.9,22.9,0,0,0-2.67-7.58,14.47,14.47,0,0,0-5-5.17,16,16,0,0,0-7.68-2.13,37.27,37.27,0,0,0-9.16,2.62,82.06,82.06,0,0,0-10.19,5.39,80.73,80.73,0,0,0-12.81,10.09l-3.7,54.07Z"/><path d="M945,379.79l-10.79,37.06q-5.34-2.84-11.89-5.56a138.3,138.3,0,0,0-13.46-4.79,128.75,128.75,0,0,0-13.84-3.33,73.87,73.87,0,0,0-13-1.25q-8.5,0-13.84,2.56T862.84,412a7.08,7.08,0,0,0,2.39,5.39,23.91,23.91,0,0,0,7.25,4.2,96.29,96.29,0,0,0,12.21,3.82q7.37,1.84,17.17,4.25,8.83,2.07,16.57,4.63a52.26,52.26,0,0,1,13.41,6.49,29.48,29.48,0,0,1,8.94,9.59,27.28,27.28,0,0,1,3.27,13.84q0,8.73-3.65,14.72a28.08,28.08,0,0,1-10.2,9.76A48.43,48.43,0,0,1,914.78,494a107.08,107.08,0,0,1-19.35,1.64,105.09,105.09,0,0,1-21.86-2,97.56,97.56,0,0,1-15-4.3,56.13,56.13,0,0,1-9-4.31c-2.07-1.31-3.36-2-3.87-2l-2.18,17.66-23-7.85,12.43-35.43a85,85,0,0,0,8.17,4.58q4.8,2.4,10.25,4.8t11.39,4.63q5.94,2.24,11.72,3.93t11,2.67a51.77,51.77,0,0,0,9.38,1,32.34,32.34,0,0,0,4.36-.33,17.48,17.48,0,0,0,4.52-1.25,9.42,9.42,0,0,0,3.54-2.62,6.78,6.78,0,0,0,1.42-4.52,8.35,8.35,0,0,0-2.51-6.05,23.51,23.51,0,0,0-6.1-4.42,47.35,47.35,0,0,0-7.69-3.11c-2.72-.83-5.18-1.58-7.36-2.23-3.48-.94-7.34-2.05-11.55-3.32s-8.5-2.77-12.86-4.47a118.12,118.12,0,0,1-12.65-5.84,56.52,56.52,0,0,1-10.9-7.52,35.44,35.44,0,0,1-7.68-9.48,23.9,23.9,0,0,1-2.89-11.77,26.43,26.43,0,0,1,3.16-12.6,31.11,31.11,0,0,1,9.21-10.41A48.77,48.77,0,0,1,853.73,382,70.36,70.36,0,0,1,874,379.35a86.77,86.77,0,0,1,19.56,2.07A120.83,120.83,0,0,1,909,386a80.57,80.57,0,0,1,13.73,6.54l-.43-17.22Z"/><path d="M1092.3,478.88l-5.56,20.17-54.18-4c.15-1.09.33-2.29.55-3.59s.43-2.55.65-3.71.55-2.62.77-3.93a72.92,72.92,0,0,1-19.19,7.42,83.35,83.35,0,0,1-33,1A47,47,0,0,1,969,488a28.8,28.8,0,0,1-10-8,19.5,19.5,0,0,1-3.92-12.48,25.52,25.52,0,0,1,3.59-13.73,33.6,33.6,0,0,1,9.49-9.87,52.61,52.61,0,0,1,13.35-6.59,116.48,116.48,0,0,1,15.15-4,122.81,122.81,0,0,1,15-2q7.3-.5,12.87-.49,5.88,0,10.57.27t8.39.82a92.75,92.75,0,0,0,1.31-15.16,30.88,30.88,0,0,0-1.36-9.48,15.2,15.2,0,0,0-4.69-7.09,21.87,21.87,0,0,0-8.83-4.25,48.21,48.21,0,0,0-13.68-1.09,26.25,26.25,0,0,0-10,3.05,28.92,28.92,0,0,0-4,2.73,25,25,0,0,0-3.81,3.92,26.87,26.87,0,0,0-3.22,5.4,31.54,31.54,0,0,0-2.18,7l-35.21,1.74a36.42,36.42,0,0,1,3.82-13.35,39.71,39.71,0,0,1,7.47-10.14,48.21,48.21,0,0,1,9.75-7.36,77.13,77.13,0,0,1,10.79-5.12,104.8,104.8,0,0,1,28.67-5.78q14.17-.21,24,2.68a50.32,50.32,0,0,1,16.3,7.73,38.11,38.11,0,0,1,10,11,49.57,49.57,0,0,1,5.23,12.16,52.18,52.18,0,0,1,1.85,11.44c.15,3.6.18,6.56.11,8.89a104.58,104.58,0,0,1-1.53,10.68c-.65,3.7-1.61,8.36-2.89,13.95s-3,12.28-5.17,20.06ZM1041,446.72c-1.68-.14-3.49-.25-5.45-.33s-4-.1-6.11-.1q-2.73,0-6.7.21t-8.34.82a83.26,83.26,0,0,0-8.72,1.69,37.33,37.33,0,0,0-7.8,2.83,18.24,18.24,0,0,0-5.61,4.26,8.81,8.81,0,0,0-.6,10.84,13.26,13.26,0,0,0,4.31,4,19.41,19.41,0,0,0,6.37,2.34,21.54,21.54,0,0,0,7.69.06,139.18,139.18,0,0,0,15.42-3.76c4.83-1.49,9-2.93,12.48-4.31.59-3.05,1.13-6.14,1.64-9.26S1040.52,449.77,1041,446.72Z"/><path d="M1176.46,466.23,1173,494.36l-81.32-2.51-1.09-19.62,27.47-1.85-.22-114.68-31.51-1.09V334.88l68.57-2.18-10.79,135.71Z"/><path d="M1333.1,493.92h-59l1.42-17.87a75.73,75.73,0,0,1-16.19,10,96.12,96.12,0,0,1-14.12,5.13,61.77,61.77,0,0,1-14,2.18q-10.36,0-17.23-2.67a26.53,26.53,0,0,1-11-7.53,28.82,28.82,0,0,1-5.83-11.66,61,61,0,0,1-1.75-15.21q0-4.46.11-7.85T1196,442q.27-3.11.66-6.38c.25-2.18.58-4.68,1-7.52s.83-6.12,1.31-9.87,1-8.22,1.69-13.46l-23.22,1.42,3.38-26.16,53.85,2.29q-1.32,12.09-2.29,21t-1.69,15.43c-.48,4.36-.87,8.06-1.2,11.11s-.6,5.77-.82,8.13-.36,4.47-.43,6.32-.11,3.8-.11,5.83a53.69,53.69,0,0,0,.76,9.27,23,23,0,0,0,2.67,7.63,14.07,14.07,0,0,0,5,5.12,14.77,14.77,0,0,0,7.69,1.85,30.44,30.44,0,0,0,11.55-3.16,46.62,46.62,0,0,0,10.74-7.52q5.73-5.12,11-14.72l3.38-46-24.64.87,2.29-23.43,74.56,2.72v17.55l-24.74,1.2,1.31,71.19,23.43,2Z"/><path d="M1493.13,496.76l-55.38-2.62.22-13.41a52.76,52.76,0,0,1-13.63,7.85,78,78,0,0,1-26.59,5.56,61.75,61.75,0,0,1-22.41-4.52,59,59,0,0,1-11.88-6.6,45,45,0,0,1-10.35-10.35,52.59,52.59,0,0,1-7.31-14.78,64.09,64.09,0,0,1-2.78-19.78,67.1,67.1,0,0,1,2.78-20.22,51.77,51.77,0,0,1,7.47-15.15,45.31,45.31,0,0,1,11-10.69,59.82,59.82,0,0,1,13.19-6.86,71.55,71.55,0,0,1,14.12-3.66,93.39,93.39,0,0,1,13.85-1.09,75.7,75.7,0,0,1,11.88,1.2,72.75,72.75,0,0,1,11,2.84,44.56,44.56,0,0,1,11.07,5.56l.65-38.37-33.68,3.59-.87-18.75,72-6.76-8.07,145.64h23.77Zm-85.79-100.18a18.66,18.66,0,0,0-11.72,3.81,31.66,31.66,0,0,0-8.29,9.76,49.1,49.1,0,0,0-5,13.19,63.57,63.57,0,0,0-1.63,14,71.29,71.29,0,0,0,1.47,14.06,48.48,48.48,0,0,0,4.74,13.41,30.93,30.93,0,0,0,8.45,10.08,20.06,20.06,0,0,0,12.59,4,26.07,26.07,0,0,0,9.49-2.51,46.37,46.37,0,0,0,9.64-6.05,59.31,59.31,0,0,0,11.07-11.94l.87-48.72a67,67,0,0,0-22.35-11.34A50.25,50.25,0,0,0,1407.34,396.58Z"/></svg>